<?xml version="1.0" encoding="UTF-8"?>
<svg xmlns="http://www.w3.org/2000/svg" viewBox="0 0 1024 1024">
  <defs>
    <clipPath id="circleClip">
      <rect x="0" y="0" width="1024" height="1024" rx="224" ry="224"/>
    </clipPath>
  </defs>
  <g clip-path="url(#circleClip)">
    
  <!-- Generator: Adobe Illustrator 30.1.0, SVG Export Plug-In . SVG Version: 2.1.1 Build 136)  -->
  <defs>
    <style>
      .st0 {
        fill: #a8e1dd;
        isolation: isolate;
      }

      .st1 {
        fill: url(#Naamloos_verloop);
      }

      .st2 {
        fill: #5e9ca5;
      }

      .st3 {
        fill: none;
        stroke: #5e9ca5;
        stroke-linecap: round;
        stroke-linejoin: round;
        stroke-width: 18.88px;
      }
    </style>
    <linearGradient id="Naamloos_verloop" data-name="Naamloos verloop" x1="-508.59" y1="896.26" x2="-508.59" y2="895.26" gradientTransform="translate(425922.55 613126.82) scale(836.44 -683.92)" gradientUnits="userSpaceOnUse">
      <stop offset="0" stop-color="#f7fafb"/>
      <stop offset=".6" stop-color="#f2f6f7"/>
      <stop offset="1" stop-color="#eaf1f2"/>
    </linearGradient>
  </defs>
  <rect class="st0" x="-1.34" y="1.57" width="1024" height="1024"/>
  <g>
    <path class="st1" d="M800.05,843.3l-163.64-79.05-327.31,33.44-48.49-3.06-45.49-15.21-10.6-7.58,4.54-4.55-9.1,3.06-31.84-31.93-27.28-66.86,3.02-27.35-21.2-79.05-27.28-200.58,3.02-54.72,15.13-30.41,37.9-34.93,87.86-30.41,457.66-54.7,81.84,3.06,51.51,24.32,34.83,41.03,18.21,51.67,9.07,48.64-6.05,15.21,12.11,24.32,15.16,100.31v12.14l-15.16,9.13h18.18l15.16,127.66-12.14,45.58-21.2,33.44-40.9,34.93-59.12,22.82,1.52,89.64h.04v-.04h.02,0Z"/>
    <g>
      <path class="st3" d="M359,523.09c49.56-49.56,114.46-51.92,167.56-28.32,53.1,23.6,112.1,16.52,167.56-47.2"/>
      <path class="st2" d="M631.25,163.37c37.82-5.57,76.2-11.3,114.27-8.27,33.89,2.69,36.13,3.53,37.43,4.01,35.4,13.09,60.37,34.61,83.72,65.49,11.3,16.3,17.46,34.8,21.62,53.9,11.85,67.31,19.98,135.2,32.1,202.5,5.48,32.58,10.76,65.21,14.14,98.07,6.42,46.89,1.63,93.59-29.75,130.35-16.92,20.12-38.42,34.49-63.73,43.8-10.57,4.97-30.85,6.81-36.64,16.19-3.86,7.08-.14,21.83,1.11,31.06,2.5,15.58,4.93,31.65,6.57,47.54,2.28,19.79-12.24,17.38-25.38,10.91-12.47-5.86-24.41-11.84-36.63-17.87-33.67-16.26-66.76-35.38-101.24-49.55-10.02-4.14-20.26-5.91-31.18-5.27-87.17,6.38-173.93,18.4-261.09,24.07-34.85,2.68-70.19,7.8-104.61-1.24-43.97-12.21-84.61-41.65-104.35-84.35-8.59-17.58-13.74-39.33-16.5-59.25-7.62-52.12-17.77-103.76-25.89-155.81-5.27-33.1-11.47-66.19-15.69-99.38-3.55-29.41-7.45-60.84-.54-89.88,11.63-53.86,56.47-91.73,108.18-102.87,72.64-15.26,147.51-20.15,220.83-29.03,70.86-7.58,142.23-14.03,212.71-24.98M452.65,200.02c-71.51,9.25-142.25,19.15-213.24,26.56-11.98,1.04-23.01,5.44-34.51,9.29-39.02,12.94-75.97,38.83-89.68,79.1-5.76,16.13-6.27,34.17-4.67,51.21,2.9,37.25,8.45,74.34,13.46,111.39,7.32,58.15,18.69,116.01,27.84,174.56,15.38,112.04,86.71,150.52,191.09,138.43,84.11-7.1,168.03-15.76,251.94-24.54,27.05-3.56,46.5-8.11,71.18,7.93,39.18,22.07,77.81,42.92,118.58,61.7,12.97,5.75,12.85-6.94,12.12-16.69-1.26-18.92-3.32-30.34-5.62-43.77-2.04-10.62-6.03-26.72,7.49-30.73,21.68-5.91,43.33-11.63,61.37-25.84,35.6-28.21,59.45-70.16,57.23-116.76-1.27-22.05-5.43-43.79-8.48-65.54-5.79-34.47-11.58-86.49-16.57-121.08-3.26-22.96-9.12-45.05-11.91-68.11-2.64-27.68-5.46-38-11.58-65.14-3.56-15.42-7.09-28.31-14.68-42.16-34.76-63.01-94.1-74.95-160.68-68.03-80.3,7.78-159.93,19.97-240.14,28.19l-.55.06h0v-.02h.01Z"/>
      <path class="st2" d="M633.56,158.66c37.82-5.57,76.2-11.3,114.27-8.27,33.89,2.69,36.13,3.53,37.43,4.01,35.4,13.09,60.37,34.61,83.72,65.49,11.3,16.3,17.46,34.8,21.62,53.9,11.85,67.31,19.98,135.2,32.1,202.5,5.48,32.58,10.76,65.21,14.14,98.07,6.42,46.89,1.63,93.59-29.75,130.35-16.92,20.12-38.42,34.49-63.73,43.8-10.57,4.97-30.85,6.81-36.64,16.19-3.86,7.08-.14,21.83,1.11,31.06,2.5,15.58,4.93,31.65,6.57,47.54,2.28,19.79-12.24,17.38-25.38,10.91-12.47-5.86-24.41-11.84-36.63-17.87-33.67-16.26-66.76-35.38-101.24-49.55-10.02-4.14-20.26-5.91-31.18-5.27-87.17,6.38-173.93,18.4-261.09,24.07-34.85,2.68-70.19,7.8-104.61-1.24-43.97-12.21-84.61-41.65-104.35-84.35-8.59-17.58-13.74-39.33-16.5-59.25-7.62-52.12-17.77-103.76-25.89-155.81-5.27-33.1-11.47-66.19-15.69-99.38-3.55-29.41-7.45-60.84-.54-89.88,11.63-53.86,56.47-91.73,108.18-102.87,72.64-15.26,147.51-20.15,220.83-29.03,70.86-7.58,142.23-14.03,212.71-24.98M454.96,195.31c-71.51,9.25-142.25,19.15-213.24,26.56-11.98,1.04-23.01,5.44-34.51,9.29-39.02,12.94-75.97,38.83-89.68,79.1-5.76,16.13-6.27,34.17-4.67,51.21,2.9,37.25,8.45,74.34,13.46,111.39,7.32,58.15,18.69,116.01,27.84,174.56,15.38,112.04,86.71,150.52,191.09,138.43,84.11-7.1,168.03-15.76,251.94-24.54,27.05-3.56,46.5-8.11,71.18,7.93,39.18,22.07,77.81,42.92,118.58,61.7,12.97,5.75,12.85-6.94,12.12-16.69-1.26-18.92-3.32-30.34-5.62-43.77-2.04-10.62-6.03-26.72,7.49-30.73,21.68-5.91,43.33-11.63,61.37-25.84,35.6-28.21,59.45-70.16,57.23-116.76-1.27-22.05-5.43-43.79-8.48-65.54-5.79-34.47-11.58-86.49-16.57-121.08-3.26-22.96-9.12-45.05-11.91-68.11-2.64-27.68-5.46-38-11.58-65.14-3.56-15.42-7.09-28.31-14.68-42.16-34.76-63.01-94.1-74.95-160.68-68.03-80.3,7.78-159.93,19.97-240.14,28.19l-.55.06h0v-.02h.01Z"/>
    </g>
  </g>

  </g>
</svg>
