<svg xmlns="http://www.w3.org/2000/svg" width="620" height="230" viewBox="0 0 620 230" fill="none">
  <rect width="620" height="230" rx="28" fill="#F8FBFC"/>

  <g transform="translate(40 25)">
    <rect x="0" y="0" width="250" height="180" rx="90" fill="#FFFFFF" stroke="#E3EAEE" stroke-width="4"/>
    <text x="125" y="147" text-anchor="middle" font-family="Arial, sans-serif" font-size="23" font-weight="700" fill="#5B6D82">Optie A</text>
    <text x="125" y="168" text-anchor="middle" font-family="Arial, sans-serif" font-size="14" fill="#7D8D9E">kaart draait om as</text>
    <g transform="translate(77 42)" stroke="#4F7283" stroke-width="6.5" stroke-linecap="round" stroke-linejoin="round">
      <rect x="0" y="18" width="34" height="54" rx="9"/>
      <rect x="52" y="18" width="34" height="54" rx="9"/>
      <path d="M43 9V81"/>
      <path d="M33 35L20 45L33 55"/>
      <path d="M53 35L66 45L53 55"/>
    </g>
  </g>

  <g transform="translate(330 25)">
    <rect x="0" y="0" width="250" height="180" rx="90" fill="#FFFFFF" stroke="#E3EAEE" stroke-width="4"/>
    <text x="125" y="147" text-anchor="middle" font-family="Arial, sans-serif" font-size="23" font-weight="700" fill="#5B6D82">Optie B</text>
    <text x="125" y="168" text-anchor="middle" font-family="Arial, sans-serif" font-size="14" fill="#7D8D9E">voor- en achterkant wisselen</text>
    <g transform="translate(78 42)" stroke="#4F7283" stroke-width="6.5" stroke-linecap="round" stroke-linejoin="round">
      <rect x="7" y="10" width="42" height="54" rx="10"/>
      <rect x="37" y="26" width="42" height="54" rx="10"/>
      <path d="M68 24C68 17 62 12 55 12"/>
      <path d="M55 4L46 12L55 20"/>
      <path d="M18 66C18 73 24 78 31 78"/>
      <path d="M31 86L40 78L31 70"/>
    </g>
  </g>
</svg>
