<?xml version="1.0" encoding="UTF-8"?>
<svg id="Laag_1" xmlns="http://www.w3.org/2000/svg" xmlns:xlink="http://www.w3.org/1999/xlink" xmlns:ns0="http://www.w3.org/2000/svg" version="1.1" viewBox="0 0 1024 1024">
  <!-- Generator: Adobe Illustrator 30.1.0, SVG Export Plug-In . SVG Version: 2.1.1 Build 136)  -->
  <defs>
    <style>
      .st0 {
        fill: none;
        stroke: #6bbac4;
        stroke-linecap: round;
        stroke-linejoin: round;
        stroke-width: 16px;
      }

      .st1 {
        fill: url(#Naamloos_verloop);
      }

      .st2 {
        fill: #7fcfc9;
        isolation: isolate;
        opacity: .95;
      }

      .st3 {
        fill: #5fa6b3;
      }
    </style>
    <linearGradient id="Naamloos_verloop" data-name="Naamloos verloop" x1="-508.81" y1="896.63" x2="-508.81" y2="895.63" gradientTransform="translate(361191.6 519884.84) scale(708.86 -579.58)" gradientUnits="userSpaceOnUse">
      <stop offset="0" stop-color="#fff"/>
      <stop offset=".6" stop-color="#f7fbfb"/>
      <stop offset="1" stop-color="#eef6f5"/>
    </linearGradient>
  </defs>
  <rect class="st2" x="-.3" y="1.43" width="1024" height="1024"/>
  <path class="st1" d="M758.07,794.59l-138.68-66.99-277.38,28.34-41.09-2.59-38.55-12.89-8.98-6.42,3.85-3.86-7.71,2.59-26.98-27.06-23.12-56.66,2.56-23.18-17.97-66.99-23.12-169.98,2.56-46.37,12.82-25.77,32.12-29.6,74.46-25.77,387.85-46.36,69.36,2.59,43.65,20.61,29.52,34.77,15.43,43.79,7.69,41.22-5.13,12.89,10.26,20.61,12.85,85.01v10.29l-12.85,7.74h15.41l12.85,108.19-10.29,38.63-17.97,28.34-34.66,29.6-50.1,19.34,1.29,75.97h.03v-.03h.02Z"/>
  <path class="st3" d="M615.06,216.55c32.05-4.72,64.58-9.58,96.84-7.01,28.72,2.28,30.62,2.99,31.72,3.4,30,11.09,51.16,29.33,70.95,55.5,9.58,13.81,14.8,29.49,18.32,45.68,10.04,57.04,16.93,114.58,27.2,171.61,4.64,27.61,9.12,55.26,11.98,83.11,5.44,39.74,1.38,79.31-25.21,110.47-14.34,17.05-32.56,29.23-54.01,37.12-8.96,4.21-26.14,5.77-31.05,13.72-3.27,6-.12,18.5.94,26.32,2.12,13.2,4.18,26.82,5.57,40.29,1.93,16.77-10.37,14.73-21.51,9.25-10.57-4.97-20.69-10.03-31.04-15.14-28.53-13.78-56.58-29.98-85.8-41.99-8.49-3.51-17.17-5.01-26.42-4.47-73.87,5.41-147.4,15.59-221.26,20.4-29.53,2.27-59.48,6.61-88.65-1.05-37.26-10.35-71.7-35.3-88.43-71.48-7.28-14.9-11.64-33.33-13.98-50.21-6.46-44.17-15.06-87.93-21.94-132.04-4.47-28.05-9.72-56.09-13.3-84.22-3.01-24.92-6.31-51.56-.46-76.17,9.86-45.64,47.86-77.74,91.68-87.18,61.56-12.93,125.01-17.08,187.14-24.6,60.05-6.42,120.53-11.89,180.26-21.17M463.7,247.61c-60.6,7.84-120.55,16.23-180.71,22.51-10.15.88-19.5,4.61-29.25,7.87-33.07,10.97-64.38,32.91-76,67.03-4.88,13.67-5.31,28.96-3.96,43.4,2.46,31.57,7.16,63,11.41,94.4,6.2,49.28,15.84,98.31,23.59,147.93,13.03,94.95,73.48,127.56,161.94,117.31,71.28-6.02,142.4-13.36,213.51-20.8,22.92-3.02,39.41-6.87,60.32,6.72,33.2,18.7,65.94,36.37,100.49,52.29,10.99,4.87,10.89-5.88,10.27-14.14-1.07-16.03-2.81-25.71-4.76-37.09-1.73-9-5.11-22.64,6.35-26.04,18.37-5.01,36.72-9.86,52.01-21.9,30.17-23.91,50.38-59.46,48.5-98.95-1.08-18.69-4.6-37.11-7.19-55.54-4.91-29.21-9.81-73.3-14.04-102.61-2.76-19.46-7.73-38.18-10.09-57.72-2.24-23.46-4.63-32.2-9.81-55.2-3.02-13.07-6.01-23.99-12.44-35.73-29.46-53.4-79.75-63.52-136.17-57.65-68.05,6.59-135.53,16.92-203.51,23.89l-.47.05h0v-.02h.01Z"/>
  <path class="st3" d="M616.92,216.38c32.05-4.72,64.58-9.58,96.84-7.01,28.72,2.28,30.62,2.99,31.72,3.4,30,11.09,51.16,29.33,70.95,55.5,9.58,13.81,14.8,29.49,18.32,45.68,10.04,57.04,16.93,114.58,27.2,171.61,4.64,27.61,9.12,55.26,11.98,83.11,5.44,39.74,1.38,79.31-25.21,110.47-14.34,17.05-32.56,29.23-54.01,37.12-8.96,4.21-26.14,5.77-31.05,13.72-3.27,6-.12,18.5.94,26.32,2.12,13.2,4.18,26.82,5.57,40.29,1.93,16.77-10.37,14.73-21.51,9.25-10.57-4.97-20.69-10.03-31.04-15.14-28.53-13.78-56.58-29.98-85.8-41.99-8.49-3.51-17.17-5.01-26.42-4.47-73.87,5.41-147.4,15.59-221.26,20.4-29.53,2.27-59.48,6.61-88.65-1.05-37.26-10.35-71.7-35.3-88.43-71.48-7.28-14.9-11.64-33.33-13.98-50.21-6.46-44.17-15.06-87.93-21.94-132.04-4.47-28.05-9.72-56.09-13.3-84.22-3.01-24.92-6.31-51.56-.46-76.17,9.86-45.64,47.86-77.74,91.68-87.18,61.56-12.93,125.01-17.08,187.14-24.6,60.05-6.42,120.53-11.89,180.26-21.17M465.56,247.44c-60.6,7.84-120.55,16.23-180.71,22.51-10.15.88-19.5,4.61-29.25,7.87-33.07,10.97-64.38,32.91-76,67.03-4.88,13.67-5.31,28.96-3.96,43.4,2.46,31.57,7.16,63,11.41,94.4,6.2,49.28,15.84,98.31,23.59,147.93,13.03,94.95,73.48,127.56,161.94,117.31,71.28-6.02,142.4-13.36,213.51-20.8,22.92-3.02,39.41-6.87,60.32,6.72,33.2,18.7,65.94,36.37,100.49,52.29,10.99,4.87,10.89-5.88,10.27-14.14-1.07-16.03-2.81-25.71-4.76-37.09-1.73-9-5.11-22.64,6.35-26.04,18.37-5.01,36.72-9.86,52.01-21.9,30.17-23.91,50.38-59.46,48.5-98.95-1.08-18.69-4.6-37.11-7.19-55.54-4.91-29.21-9.81-73.3-14.04-102.61-2.76-19.46-7.73-38.18-10.09-57.72-2.24-23.46-4.63-32.2-9.81-55.2-3.02-13.07-6.01-23.99-12.44-35.73-29.46-53.4-79.75-63.52-136.17-57.65-68.05,6.59-135.53,16.92-203.51,23.89l-.47.05h0v-.02h.01Z"/>
  <path class="st0" d="M382.34,521.4c42-42,97-44,142-24,45,20,95,14,142-40"/>
</svg>
