<?xml version="1.0" encoding="UTF-8"?>
<svg id="Laag_1" xmlns="http://www.w3.org/2000/svg" xmlns:xlink="http://www.w3.org/1999/xlink" xmlns:ns0="http://www.w3.org/2000/svg" version="1.1" viewBox="0 0 1024 1024">
  <!-- Generator: Adobe Illustrator 30.1.0, SVG Export Plug-In . SVG Version: 2.1.1 Build 136)  -->
  <defs>
    <style>
      .st0 {
        fill: none;
        opacity: .9;
        stroke: #81becc;
        stroke-linecap: round;
        stroke-linejoin: round;
        stroke-width: 10px;
      }

      .st0, .st1, .st2 {
        isolation: isolate;
      }

      .st3 {
        fill: url(#Naamloos_verloop);
      }

      .st4 {
        fill: #fff;
      }

      .st1 {
        fill: #7fcfc9;
        opacity: .71;
      }

      .st2 {
        fill: #81becc;
      }
    </style>
    <linearGradient id="Naamloos_verloop" data-name="Naamloos verloop" x1="-1018.26" y1="-.45" x2="-1017.63" y2=".18" gradientTransform="translate(931855.8 574.38) scale(914.94 736)" gradientUnits="userSpaceOnUse">
      <stop offset="0" stop-color="#fff"/>
      <stop offset=".5" stop-color="#f2f9f8"/>
      <stop offset="1" stop-color="#e4f1f0"/>
    </linearGradient>
  </defs>
  <rect class="st1" x="-4" width="1024" height="1024"/>
<g id="iconwrap" transform="translate(-186.020 -180.981) scale(1.439669)">

  <path class="st4" d="M215.93,297.67c4.41-3.44,8.78-6.99,13.54-9.92,7.46-4.7,15.8-7.57,23.98-10.77,13.22-5.33,26.97-9.67,41.14-10.88,56.86-7.21,113.78-13.06,170.49-21.02,38.8-5.79,77.93-9.43,117.02-12.47,43.68-4.64,93.38-12.81,129.35,19,21.08,17.12,35.66,41.05,41.93,67.6,4.4,23.23,6.98,46.5,10.21,69.82,2.31,20.52,6.33,40.5,10.49,60.81,3.28,18.7,5.92,37.56,8.45,56.11,2.21,19.4,5.79,39.1,3.49,58.59-.85,7.08-3.22,13.94-5.38,20.81-1.8,5.56-3.51,11.15-6.11,16.39-5.6,10.08-12.31,19.93-20.27,28.22-10.15,9.8-21.69,17.8-34.05,23.92-17.7,8.11-27.3,8.72-23.43,31.58,1.09,6.94,2.43,13.71,3.6,20.79,1.11,7.84,2.99,17.62-3.4,23.59-4.54,4.16-12.7,5.17-19.01,3.37-4.29-1.13-8.25-3.13-12.24-5.05-25.09-12.45-50.17-24.97-75.1-37.78-10.65-5.72-22.15-10.18-34.43-9.39-48.03,2.84-93.54,7.82-136.61,11.63-21.7,1.44-43.27,3.89-64.9,6.13-25.9,2.1-53.28-.83-76.78-12.38-24.4-11.78-43.61-32.75-55.64-58-8.38-17.95-10.62-37.15-12.39-56.57-.77-12.07-3.25-24.05-5.47-35.85-1.68-9.92-2.98-20.01-4.69-30.11-5.89-35.85-12.05-71.89-15.38-108.19-4.69-42.9.64-68.06,31.54-99.95M654.24,241.26c-10.62-.73-21.47-.67-32.17-.02-14.16,1.01-28.31,3.32-42.45,4.69-17.11,1.17-34.58,4.11-51.56,5.88-17.16,1.81-34.39,4.48-51.6,6.33-35.18,4-70.37,7.73-105.58,11.54-25.31,2.78-50.61,5.79-75.82,9.52-13.26,2.14-26.03,4.39-38.95,9.07-36.66,12.75-61.21,46.28-61.95,84.99-.16,39.21,9.1,77.38,14.83,115.98,6.7,38.07,12.68,76.14,19.56,114.19,2.16,9.24,5.19,17.77,9.08,25.55,17.23,34.9,55.9,57.66,94.48,58.93,16.03.66,32.02-1.27,47.99-2.46,53.18-3.45,106.13-10.29,159.25-14.74,12.19-.91,25-3.19,36.85.76,16.62,5.76,32.1,14.33,47.9,22.18,16.31,8.27,32.58,16.34,49.12,24.11,12.16,5.58,20.67,5.27,18.19-11.2-1.31-10.84-2.98-21.46-4.72-32.19-2.63-16.49-.93-19.47,15.21-24.35,26.27-7.52,49.68-22.95,62.99-46.63,14.75-25.31,13.78-52.09,10.25-80.19-2.36-20.82-5.77-41.5-9.29-62.15-6.02-34.45-11.19-69.03-16.44-103.6-3.54-23.5-6.07-47.97-19.75-68.19-17.65-26.12-43.47-43.95-74.89-47.93l-.55-.06h.02,0Z"/>
  <path class="st3" d="M682.62,715.96l-112.01-54.1-224.04,22.89-33.19-2.09-31.13-10.41-7.25-5.19,3.11-3.12-6.23,2.09-21.79-21.85-18.67-45.76,2.07-18.72-14.52-54.1-18.67-137.3,2.07-37.45,10.36-20.81,25.94-23.91,60.14-20.81,313.26-37.45,56.02,2.09,35.26,16.64,23.84,28.08,12.46,35.37,6.21,33.29-4.14,10.41,8.29,16.64,10.38,68.66v8.31l-10.38,6.25h12.45l10.38,87.38-8.31,31.2-14.52,22.89-27.99,23.91-40.46,15.62,1.04,61.36h.02,0Z"/>
  <path class="st0" d="M381.58,483.2c30.56-35.82,72.41,20.11,113.26-17.29,40.86-37.4,82.7,18.53,113.09-32.85"/>
  <path class="st2" d="M568.24,248.17c25.9-3.77,52.18-7.65,78.25-5.6,23.21,1.82,24.74,2.39,25.63,2.71,24.24,8.85,41.34,23.42,57.33,44.32,7.74,11.03,11.96,23.55,14.8,36.48,8.11,45.54,13.68,91.49,21.98,137.03,3.75,22.04,7.37,44.12,9.68,66.36,4.4,31.73,1.12,63.33-20.37,88.21-11.59,13.62-26.31,23.34-43.64,29.64-7.24,3.36-21.12,4.61-25.09,10.95-2.64,4.79-.1,14.77.76,21.01,1.71,10.54,3.38,21.42,4.5,32.17,1.56,13.39-8.38,11.76-17.38,7.38-8.54-3.97-16.72-8.01-25.08-12.09-23.05-11-45.72-23.94-69.33-33.53-6.86-2.8-13.88-4-21.35-3.57-59.69,4.32-119.1,12.45-178.78,16.29-23.86,1.81-48.06,5.28-71.63-.84-30.1-8.26-57.93-28.19-71.45-57.08-5.88-11.9-9.41-26.61-11.3-40.09-5.22-35.27-12.17-70.21-17.73-105.43-3.61-22.4-7.85-44.79-10.75-67.25-2.43-19.9-5.1-41.17-.37-60.82,7.96-36.44,38.67-62.08,74.08-69.61,49.74-10.33,101.01-13.64,151.21-19.65,48.52-5.12,97.39-9.49,145.65-16.91M445.94,272.97c-48.97,6.26-97.4,12.96-146.02,17.97-8.2.7-15.75,3.68-23.63,6.28-26.72,8.76-52.02,26.28-61.41,53.52-3.94,10.91-4.29,23.12-3.2,34.66,1.99,25.21,5.78,50.31,9.22,75.38,5.01,39.35,12.8,78.5,19.06,118.12,10.53,75.82,59.37,101.85,130.85,93.67,57.59-4.81,115.06-10.67,172.52-16.61,18.52-2.41,31.85-5.49,48.74,5.36,26.82,14.93,53.28,29.04,81.2,41.75,8.88,3.89,8.8-4.7,8.3-11.29-.86-12.8-2.27-20.53-3.84-29.62-1.4-7.19-4.13-18.08,5.13-20.79,14.84-4,29.67-7.87,42.03-17.49,24.38-19.09,40.71-47.48,39.19-79.01-.87-14.92-3.72-29.63-5.81-44.35-3.97-23.32-7.93-58.53-11.34-81.93-2.23-15.54-6.25-30.48-8.15-46.09-1.81-18.73-3.74-25.71-7.93-44.08-2.44-10.44-4.86-19.16-10.05-28.53-23.81-42.64-64.44-50.72-110.03-46.03-54.99,5.26-109.51,13.51-164.44,19.08l-.38.04h-.01Z"/>

</g>
</svg>
