<?xml version="1.0" encoding="UTF-8"?>
<svg id="Laag_1" xmlns="http://www.w3.org/2000/svg" version="1.1" viewBox="0 0 180 180">
  <!-- Generator: Adobe Illustrator 30.1.0, SVG Export Plug-In . SVG Version: 2.1.1 Build 136)  -->
  <defs>
    <style>
      .st0 {
        stroke-width: .39px;
      }

      .st0, .st1 {
        fill: none;
        stroke: #2f4c4b;
        stroke-linecap: round;
        stroke-linejoin: round;
      }

      .st0, .st1, .st2, .st3, .st4, .st5 {
        isolation: isolate;
      }

      .st0, .st5 {
        opacity: .55;
      }

      .st1 {
        opacity: .92;
        stroke-width: .48px;
      }

      .st2 {
        fill: #b8e6e2;
        opacity: .45;
      }

      .st6 {
        fill: #eaf6f5;
        stroke: #000;
        stroke-miterlimit: 1.51;
        stroke-width: .15px;
      }

      .st3 {
        fill: #7fcfc9;
        opacity: .52;
      }

      .st4 {
        opacity: .65;
      }

      .st4, .st5 {
        fill: #ddf4f2;
      }
    </style>
  </defs>
  <path class="st5" d="M119.86,77.63c15.23-8.26,35.55-8.26,48.24,2.75,12.7,11.02,15.23,27.54,7.62,44.06-7.62,16.52-25.39,27.54-40.62,27.54s-27.93-8.26-30.47-22.03,2.54-38.55,15.23-52.32h0Z"/>
  <path class="st2" d="M17.46,80.48c-7.62-19.28,0-41.31,17.77-49.57,15.23-6.88,30.47-2.75,43.16,4.13s22.85,4.13,30.47,12.39c7.62,8.26,7.62,22.03,2.54,33.05-5.08,11.02-17.77,16.52-27.93,24.78-12.7,8.26-27.93,8.26-40.62,2.75-12.7-5.51-17.77-11.02-25.39-27.54h0Z"/>
  <path class="st3" d="M18.2,81.9c-3.39-27.48,20.33-49.74,48.83-49.97,26.09-.96,41.86,18.48,60.06,18.08,20.6.32,36.37,19.77,38.05,43.79,1.68,24.03-12.76,40.26-28.22,50.3-15.46,10.04-37.45,15.18-58.38,5.94-20.93-9.24-39.79-26.68-50.75-44.68-7.19-12.45-6.5-15.19-9.58-23.46h0s0,0,0,0Z"/>
  <g>
    <path class="st4" d="M20.72,63.34c-3.13-11.94,7.76-21.31,21.64-23.25l88.91-10.31c11.1-1.85,21.06,5.36,22.79,17.34l12.94,62.79c1.74,11.98-6.36,21.26-18.85,23.16l-91.65,11.9c-11.11,1.25-21.02-3.86-22.71-14.33l-13.07-67.3h0Z"/>
    <path class="st1" d="M43.04,40.15l88.41-13.15c14.87-2.66,24.35,8.35,26.19,21.4l7.39,56.86c1.94,14.63-7.82,26.81-22.69,29.47l-86.76,7.51c-14.46,1.25-23.07-7.91-24.9-20.96l-8.67-57.3c-1.83-13.05,6.58-22.58,21.04-23.83h0Z"/>
    <path class="st0" d="M41.18,40.76l89.58-15.23c17.17-2.8,28.19,9.66,30.39,25.32l5.66,54.1c2.07,19.96-9.38,32.18-24.85,34.95l-87.82,3.41c-16.16,1.29-25.98-9.53-27.83-24.45l-6.17-54.27c-2.04-16.22,6.93-21.84,21.04-23.83h0Z"/>
    <path class="st6" d="M44.36,45.99l82.61-7.05c12.85-1.12,21.6,6.85,23.68,17.37l9.51,47.67c1.94,11-5.42,20.09-17.89,21.85l-80.72,6.09c-12.72.64-20.6-6.53-22.8-16.57l-12.28-47.51c-2.09-8.45,5.15-19.14,17.89-21.85h0,0Z"/>
  </g>
</svg>