<?xml version="1.0" encoding="UTF-8"?>
<svg id="Laag_1" xmlns="http://www.w3.org/2000/svg" xmlns:ns0="http://www.w3.org/2000/svg" version="1.1" viewBox="0 0 1024 1024">
  <!-- Generator: Adobe Illustrator 30.1.0, SVG Export Plug-In . SVG Version: 2.1.1 Build 136)  -->
  <defs>
    <style>
      .st0 {
        fill: #eaf6f5;
      }

      .st0, .st1 {
        stroke: #1d1d1b;
        stroke-miterlimit: 10;
      }

      .st1 {
        fill: none;
      }

      .st2, .st3 {
        fill: #ddf4f2;
      }

      .st4 {
        fill: #fff;
      }

      .st5 {
        fill: #b8e6e2;
        opacity: .45;
      }

      .st5, .st6, .st3 {
        isolation: isolate;
      }

      .st6 {
        fill: #7fcfc9;
      }

      .st6, .st3 {
        opacity: .55;
      }
    </style>
  </defs>
  <rect class="st4" width="1024" height="1024"/>
  <path class="st3" d="M425.48,594.28c44.24-50.43,118.32-80.62,179.72-62.45s93.3,69.96,88.17,136.84c-5.14,66.89-54.86,130.35-110.43,152.99-55.56,22.65-113.19,13.73-141.32-28.79-28.13-42.53-43.58-133.42-16.15-198.59h.01Z"/>
  <path class="st3" d="M660,360c60-30,140-30,190,10s60,100,30,160-100,100-160,100-110-30-120-80,10-140,60-190Z"/>
  <path class="st5" d="M281,428c-30-70,0-150,70-180,60-25,120-10,170,15s90,15,120,45,30,80,10,120-70,60-110,90c-50,30-110,30-160,10s-70-40-100-100Z"/>
  <path class="st6" d="M251.07,485.91c-13.94-103.44,83.51-187.22,200.59-188.12,107.21-3.62,171.98,69.58,246.74,68.07,84.63,1.22,149.4,74.42,156.31,164.85,6.91,90.44-52.43,151.53-115.96,189.34-63.53,37.8-153.84,57.16-239.83,22.37-85.99-34.79-163.47-100.43-208.5-168.18-29.55-46.88-26.71-57.17-39.36-88.32h.01Z"/>
  <path class="st2" d="M262.56,474.25c-18.47-37.63,15.1-75.88,63.96-91.4l314.2-92.41c38.88-13.41,79.13,4.03,92.61,42.72l84.51,200.18c13.48,38.68-10.11,74.82-53.97,89.29l-323.12,99.48c-39.3,11.43-78.07.94-90.49-32.78l-87.69-215.08h0Z"/>
  <path class="st1" d="M330.67,387.2l310.68-101.52c51.99-18.57,92.78,11.82,107.27,53.97l60.91,184.12c15.8,47.36-12,94.21-63.99,112.78l-308.16,81.69c-51.36,13.61-87.9-11.19-102.38-53.35l-65.8-184.74c-14.48-42.16,10.1-79.34,61.46-92.95h.01Z"/>
  <path class="st1" d="M324.31,390.42l313.65-109.21c60.18-20.55,107.43,13.68,124.81,64.27l53.01,176.06c19.52,64.97-14.4,113.05-68.47,132.37l-314.45,68.79c-57.47,14.85-99.37-14.67-115.04-63.03l-54.96-176.31c-17.13-52.57,11.8-77.1,61.46-92.95h0Z"/>
  <path class="st0" d="M338.93,402.9l293.46-77.46c45.62-12.13,81.99,8.62,95.8,42.24l63.03,152.19c13.64,35.29-7.4,70.31-51.28,84.31l-287.22,73.04c-45.44,10.45-78.18-8.22-92.17-40.16l-72.92-149.85c-12.61-26.72,7.04-66.96,51.28-84.31h.02Z"/>
</svg>