<?xml version="1.0" encoding="UTF-8"?>
<svg id="Laag_1" xmlns="http://www.w3.org/2000/svg" xmlns:ns0="http://www.w3.org/2000/svg" version="1.1" viewBox="0 0 1024 1024">
  <!-- Generator: Adobe Illustrator 30.1.0, SVG Export Plug-In . SVG Version: 2.1.1 Build 136)  -->
  <defs>
    <style>
      .st0 {
        fill: #eaf6f5;
        stroke: #000;
        stroke-miterlimit: 10;
      }

      .st1 {
        fill: #b8e6e2;
        opacity: .45;
      }

      .st1, .st2, .st3, .st4, .st5, .st6 {
        isolation: isolate;
      }

      .st2 {
        opacity: .92;
        stroke-width: 3.2px;
      }

      .st2, .st6 {
        fill: none;
        stroke: #2f4c4b;
        stroke-linecap: round;
        stroke-linejoin: round;
      }

      .st3 {
        fill: #7fcfc9;
        opacity: .52;
      }

      .st4 {
        opacity: .65;
      }

      .st4, .st5 {
        fill: #ddf4f2;
      }

      .st5, .st6 {
        opacity: .55;
      }

      .st6 {
        stroke-width: 2.6px;
      }
    </style>
  </defs>
  <path class="st5" d="M631.11,450.13c55.8-27.9,130.2-27.9,176.7,9.3s55.8,93,27.9,148.8-93,93-148.8,93-102.3-27.9-111.6-74.4,9.3-130.2,55.8-176.7h0Z"/>
  <path class="st1" d="M262.07,450.3c-27.9-65.1,0-139.5,65.1-167.4,55.8-23.25,111.6-9.3,158.1,13.95s83.7,13.95,111.6,41.85,27.9,74.4,9.3,111.6-65.1,55.8-102.3,83.7c-46.5,27.9-102.3,27.9-148.8,9.3s-65.1-37.2-93-93h0Z"/>
  <path class="st3" d="M258.76,464.55c-12.43-92.8,74.45-167.97,178.84-168.77,95.58-3.25,153.33,62.42,219.98,61.07,75.45,1.09,133.2,66.77,139.36,147.9,6.16,81.14-46.74,135.95-103.38,169.87-56.64,33.91-137.16,51.28-213.82,20.07-76.66-31.21-145.74-90.1-185.89-150.88-26.35-42.06-23.81-51.29-35.09-79.24h0Z"/>
  <g>
    <path class="st4" d="M268,401.88c-11.45-40.32,28.41-71.96,79.25-78.51l325.65-34.82c40.65-6.25,77.14,18.1,83.49,58.57l47.4,212.05c6.36,40.47-23.31,71.81-69.05,78.22l-335.69,40.18c-40.71,4.23-76.98-13.02-83.18-48.41l-47.87-227.28h0Z"/>
    <path class="st2" d="M349.75,323.58l323.82-44.41c54.47-8.99,89.18,28.2,95.91,72.26l27.05,192.04c7.09,49.42-28.63,90.55-83.1,99.54l-317.79,25.35c-52.96,4.22-84.49-26.71-91.21-70.77l-31.75-193.52c-6.72-44.07,24.11-76.26,77.07-80.48h0Z"/>
    <path class="st6" d="M342.92,325.61l328.11-51.45c62.88-9.47,103.26,32.64,111.33,85.52l20.72,182.7c7.6,67.41-34.36,108.66-91.01,118.02l-321.68,11.53c-59.2,4.35-95.15-32.18-101.94-82.56l-22.59-183.29c-7.47-54.78,25.38-73.75,77.07-80.48h-.01Z"/>
    <path class="st0" d="M354.59,343.27l302.58-23.81c47.05-3.79,79.13,23.12,86.72,58.67l34.84,161c7.12,37.16-19.84,67.86-65.51,73.8l-295.65,20.58c-46.58,2.17-75.46-22.05-83.52-55.97l-44.99-160.46c-7.64-28.54,18.88-64.63,65.51-73.8h.02,0Z"/>
  </g>
</svg>