<svg xmlns="http://www.w3.org/2000/svg" style="display:none">
  <symbol id="icon-shuffle" viewBox="0 0 24 24">
    <path d="M16 3h3v3" fill="none" stroke="currentColor" stroke-width="2" stroke-linecap="round" stroke-linejoin="round"/>
    <path d="M5 7h6c1.1 0 2.1.5 2.8 1.4l1.2 1.6" fill="none" stroke="currentColor" stroke-width="2" stroke-linecap="round" stroke-linejoin="round"/>
    <path d="M5 17h6c1.1 0 2.1-.5 2.8-1.4l1.2-1.6" fill="none" stroke="currentColor" stroke-width="2" stroke-linecap="round" stroke-linejoin="round"/>
    <path d="M19 3l-4 4" fill="none" stroke="currentColor" stroke-width="2" stroke-linecap="round" stroke-linejoin="round"/>
    <path d="M16 21h3v-3" fill="none" stroke="currentColor" stroke-width="2" stroke-linecap="round" stroke-linejoin="round"/>
    <path d="M19 21l-4-4" fill="none" stroke="currentColor" stroke-width="2" stroke-linecap="round" stroke-linejoin="round"/>
  </symbol>
  <symbol id="icon-info" viewBox="0 0 24 24">
    <path d="M12 10v7" fill="none" stroke="currentColor" stroke-width="2" stroke-linecap="round"/>
    <path d="M12 7h.01" fill="none" stroke="currentColor" stroke-width="3" stroke-linecap="round"/>
  </symbol>
  <symbol id="icon-x" viewBox="0 0 24 24">
    <path d="M18 6L6 18" fill="none" stroke="currentColor" stroke-width="2" stroke-linecap="round"/>
    <path d="M6 6l12 12" fill="none" stroke="currentColor" stroke-width="2" stroke-linecap="round"/>
  </symbol>
  <symbol id="icon-chevron-left" viewBox="0 0 24 24">
    <path d="M15 18l-6-6 6-6" fill="none" stroke="currentColor" stroke-width="2" stroke-linecap="round" stroke-linejoin="round"/>
  </symbol>
  <symbol id="icon-chevron-right" viewBox="0 0 24 24">
    <path d="M9 6l6 6-6 6" fill="none" stroke="currentColor" stroke-width="2" stroke-linecap="round" stroke-linejoin="round"/>
  </symbol>
</svg>
